<?xml version="1.0" standalone="no"?>
<!DOCTYPE svg PUBLIC "-//W3C//DTD SVG 20010904//EN"
 "http://www.w3.org/TR/2001/REC-SVG-20010904/DTD/svg10.dtd">
<svg version="1.0" xmlns="http://www.w3.org/2000/svg"
 width="700.000000pt" height="700.000000pt" viewBox="0 0 700.000000 700.000000"
 preserveAspectRatio="xMidYMid meet">
<metadata>
Created by potrace 1.11, written by Peter Selinger 2001-2013
</metadata>
<g transform="translate(0.000000,700.000000) scale(0.100000,-0.100000)"
fill="#000000" stroke="none">
<path d="M3215 6989 c-745 -64 -1437 -353 -1995 -835 -551 -475 -938 -1101
-1114 -1799 -73 -291 -101 -529 -101 -860 1 -404 50 -722 171 -1090 254 -772
784 -1445 1476 -1876 449 -279 925 -443 1483 -511 136 -16 580 -16 730 0 679
75 1288 327 1830 757 l88 70 -174 7 c-335 13 -567 85 -820 254 -146 98 -381
350 -465 501 l-22 38 327 197 c273 165 328 194 336 181 6 -8 31 -47 56 -86 99
-152 233 -271 368 -328 98 -41 200 -53 338 -40 310 31 446 150 460 406 5 78 3
96 -15 130 -55 107 -193 196 -567 365 -532 241 -768 397 -901 596 -152 230
-189 688 -82 1023 149 467 515 720 1008 697 435 -20 781 -165 1059 -443 113
-111 114 -114 95 -132 -10 -10 -93 -71 -184 -136 -91 -65 -229 -165 -307 -222
l-142 -102 -25 55 c-33 72 -133 172 -207 207 -75 35 -129 46 -220 47 -212 0
-361 -119 -394 -317 -8 -51 15 -147 48 -200 95 -148 330 -281 762 -430 164
-57 315 -128 422 -199 93 -62 240 -197 299 -274 26 -34 40 -46 45 -38 4 7 19
65 33 130 154 688 96 1417 -164 2068 -337 843 -1008 1538 -1839 1904 -526 231
-1132 333 -1696 285z m895 -2659 l0 -350 -542 -2 -543 -3 -3 -1527 -2 -1528
-395 0 -395 0 -2 1528 -3 1527 -542 3 -543 2 0 350 0 350 1485 0 1485 0 0
-350z"/>
</g>
</svg>
